<svg xmlns="http://www.w3.org/2000/svg" width="30" height="29.08" viewBox="0 0 30 29.08">
  <g id="comment" fill="none">
    <path d="M6.044,27.6,6.906,26H4a4,4,0,0,1-4-4V4A4,4,0,0,1,4,0H26a4,4,0,0,1,4,4V22a4,4,0,0,1-4,4H12.753a1,1,0,0,1-.28.223L7.4,28.955A1,1,0,0,1,6.044,27.6Z" stroke="none"/>
    <path d="M 9.385539054870605 25.61400413513184 L 11.36624431610107 24.54776382446289 L 11.84368991851807 24.00010108947754 L 12.75343036651611 24.00010108947754 L 26.00010108947754 24.00010108947754 C 27.10268020629883 24.00010108947754 27.99970054626465 23.10268211364746 27.99970054626465 21.99960136413574 L 27.99970054626465 3.999601602554321 C 27.99970054626465 2.897021532058716 27.10268020629883 2.000001668930054 26.00010108947754 2.000001668930054 L 3.999600172042847 2.000001668930054 C 2.89702033996582 2.000001668930054 2.000000238418579 2.897021532058716 2.000000238418579 3.999601602554321 L 2.000000238418579 21.99960136413574 C 2.000000238418579 23.10268211364746 2.89702033996582 24.00010108947754 3.999600172042847 24.00010108947754 L 6.906090259552002 24.00010108947754 L 10.25461006164551 24.00010108947754 L 9.385539054870605 25.61400413513184 M 6.920360088348389 29.07954216003418 C 6.224730491638184 29.0796012878418 5.659920215606689 28.31413078308105 6.044400215148926 27.60030174255371 L 6.906090259552002 26.00010108947754 L 3.999600172042847 26.00010108947754 C 1.791000247001648 26.00010108947754 2.731323149873788e-07 24.2091007232666 2.731323149873788e-07 21.99960136413574 L 2.731323149873788e-07 3.999601602554321 C 2.731323149873788e-07 1.791001558303833 1.791000247001648 1.597595201019431e-06 3.999600172042847 1.597595201019431e-06 L 26.00010108947754 1.597595201019431e-06 C 28.20870018005371 1.597595201019431e-06 29.99970054626465 1.791001558303833 29.99970054626465 3.999601602554321 L 29.99970054626465 21.99960136413574 C 29.99970054626465 24.2091007232666 28.20870018005371 26.00010108947754 26.00010108947754 26.00010108947754 L 12.75343036651611 26.00010108947754 C 12.67701053619385 26.08776092529297 12.58334064483643 26.16389083862305 12.47310066223145 26.22330093383789 L 7.398900508880615 28.95480155944824 C 7.23900032043457 29.0410213470459 7.076350212097168 29.07952117919922 6.920360088348389 29.07954216003418 Z" stroke="none" fill="#3a3a3a"/>
  </g>
</svg>
