<svg xmlns="http://www.w3.org/2000/svg" width="25" height="30.212" viewBox="0 0 25 30.212">
  <g id="home" transform="translate(0 -0.282)" fill="none">
    <path d="M4,30.494a4,4,0,0,1-4-4V18.18a3.985,3.985,0,0,1,.348-1.634,2.691,2.691,0,0,1,.308-.606L10,1.62A3,3,0,0,1,15,1.62l9.529,14.623a2.006,2.006,0,0,1,.392,1.13A4.018,4.018,0,0,1,25,18.18v8.313a4,4,0,0,1-4,4Z" stroke="none"/>
    <path d="M 21.00060081481934 28.49380111694336 C 22.10317993164063 28.49380111694336 23.00020027160645 27.59638023376465 23.00020027160645 26.49330139160156 L 23.00020027160645 18.18000030517578 C 23.00020027160645 18.04293060302734 22.98646926879883 17.90645027160645 22.95939064025879 17.77434158325195 L 22.91551971435547 17.56033134460449 L 22.91731834411621 17.44375038146973 C 22.90605163574219 17.422119140625 22.88841247558594 17.39123916625977 22.86178970336914 17.35123062133789 L 22.8564395904541 17.34320068359375 L 22.85118103027344 17.33512115478516 L 13.32844734191895 2.721845865249634 C 13.07041358947754 2.33948802947998 12.69911575317383 2.282150983810425 12.50010013580322 2.282150983810425 C 12.30102348327637 2.282150983810425 11.92955780029297 2.33952522277832 11.67151355743408 2.7221999168396 L 2.330920219421387 17.03305053710938 L 2.326060056686401 17.04050064086914 L 2.321130037307739 17.04790115356445 C 2.262480020523071 17.13605117797852 2.242480039596558 17.18744087219238 2.237750053405762 17.20109176635742 L 2.208990097045898 17.28407096862793 L 2.173070192337036 17.36421012878418 C 2.05823016166687 17.62044143676758 2.000000238418579 17.89491081237793 2.000000238418579 18.18000030517578 L 2.000000238418579 26.49330139160156 C 2.000000238418579 27.59638023376465 2.897420167922974 28.49380111694336 4.000500202178955 28.49380111694336 L 21.00060081481934 28.49380111694336 M 21.00060081481934 30.49380111694336 L 4.000500202178955 30.49380111694336 C 1.791000127792358 30.49380111694336 1.358032193365943e-07 28.70280075073242 1.358032193365943e-07 26.49330139160156 L 1.358032193365943e-07 18.18000030517578 C 1.358032193365943e-07 17.59806060791016 0.1244301348924637 17.04503059387207 0.3480101227760315 16.54620170593262 C 0.4155601263046265 16.35128021240234 0.5170801281929016 16.14881134033203 0.6561001539230347 15.93990135192871 L 10.00259971618652 1.620000958442688 C 10.59615039825439 0.7281008958816528 11.54812526702881 0.28215092420578 12.50010013580322 0.28215092420578 C 13.45207500457764 0.28215092420578 14.40404987335205 0.7281008958816528 14.99760055541992 1.620000958442688 L 24.52680015563965 16.24320030212402 C 24.80380058288574 16.6594409942627 24.92383003234863 17.03659057617188 24.91864967346191 17.37272071838379 C 24.97208976745605 17.63342094421387 25.00020027160645 17.90352058410645 25.00020027160645 18.18000030517578 L 25.00020027160645 26.49330139160156 C 25.00020027160645 28.70280075073242 23.20919990539551 30.49380111694336 21.00060081481934 30.49380111694336 Z" stroke="none" fill="#3a3a3a"/>
  </g>
</svg>
