<svg xmlns="http://www.w3.org/2000/svg" width="28.292" height="28.3" viewBox="0 0 28.292 28.3">
  <g id="play" transform="translate(-6983 -337.85)">
    <g id="Path_27" data-name="Path 27" transform="translate(7015 336) rotate(90)" fill="none">
      <path d="M13.317,5.367a3,3,0,0,1,5.367,0L29.829,27.658A3,3,0,0,1,27.146,32H4.854a3,3,0,0,1-2.683-4.342Z" stroke="none"/>
      <path d="M 16 5.708198547363281 C 15.81418037414551 5.708198547363281 15.35503005981445 5.762058258056641 15.10556983947754 6.260990142822266 L 3.95966911315918 28.55278968811035 C 3.734630584716797 29.00286865234375 3.915319442749023 29.38312911987305 4.003450393676758 29.52573013305664 C 4.091579437255859 29.6683292388916 4.350889205932617 30 4.854099273681641 30 L 27.14590072631836 30 C 27.64910888671875 30 27.90842056274414 29.6683292388916 27.99654960632324 29.52573013305664 C 28.08468055725098 29.38312911987305 28.2653694152832 29.00286865234375 28.04032897949219 28.55278968811035 L 16.89443016052246 6.260990142822266 C 16.64496040344238 5.762058258056641 16.18581962585449 5.708198547363281 16 5.708198547363281 M 16 3.70820426940918 C 17.06524658203125 3.70820426940918 18.13049507141113 4.260990142822266 18.68328094482422 5.366559982299805 L 29.82917976379395 27.65835952758789 C 30.82653045654297 29.6530590057373 29.37603950500488 32 27.14590072631836 32 L 4.854099273681641 32 C 2.62394905090332 32 1.173469543457031 29.6530590057373 2.170820236206055 27.65835952758789 L 13.31671905517578 5.366559982299805 C 13.86950492858887 4.260990142822266 14.93475341796875 3.70820426940918 16 3.70820426940918 Z" stroke="none" fill="#3a3a3a"/>
    </g>
  </g>
</svg>
